<?xml version="1.0" encoding="UTF-8" standalone="no"?>
<svg
   xmlns:dc="http://purl.org/dc/elements/1.1/"
   xmlns:cc="http://creativecommons.org/ns#"
   xmlns:rdf="http://www.w3.org/1999/02/22-rdf-syntax-ns#"
   xmlns:svg="http://www.w3.org/2000/svg"
   xmlns="http://www.w3.org/2000/svg"
   xmlns:sodipodi="http://sodipodi.sourceforge.net/DTD/sodipodi-0.dtd"
   xmlns:inkscape="http://www.inkscape.org/namespaces/inkscape"
   version="1.1"
   viewBox="0 0 277.77192 277.77191"
   enable-background="new 0 0 460 460"
   id="svg14"
   sodipodi:docname="fno_circle_080.svg"
   inkscape:version="0.92.4 (5da689c313, 2019-01-14)"
   width="277.77191"
   height="277.77191"
   inkscape:export-filename="C:\Ben\Work\iMinds\Projects\FnO\PR\fno_070.svg.png"
   inkscape:export-xdpi="72.042343"
   inkscape:export-ydpi="72.042343">
  <metadata
     id="metadata20">
    <rdf:RDF>
      <cc:Work
         rdf:about="">
        <dc:format>image/svg+xml</dc:format>
        <dc:type
           rdf:resource="http://purl.org/dc/dcmitype/StillImage" />
        <dc:title></dc:title>
      </cc:Work>
    </rdf:RDF>
  </metadata>
  <defs
     id="defs18">
    <clipPath
       clipPathUnits="userSpaceOnUse"
       id="clipPath5106">
      <circle
         style="opacity:1;fill:#ffffff;fill-opacity:1;fill-rule:nonzero;stroke:none;stroke-width:11.8258934;stroke-linecap:round;stroke-linejoin:round;stroke-miterlimit:4;stroke-dasharray:none;stroke-dashoffset:0;stroke-opacity:1"
         id="circle5108"
         cx="358.14059"
         cy="564.86499"
         r="138.88596" />
    </clipPath>
  </defs>
  <sodipodi:namedview
     pagecolor="#ffffff"
     bordercolor="#666666"
     borderopacity="1"
     objecttolerance="10"
     gridtolerance="10"
     guidetolerance="10"
     inkscape:pageopacity="0"
     inkscape:pageshadow="2"
     inkscape:window-width="1680"
     inkscape:window-height="988"
     id="namedview16"
     showgrid="false"
     inkscape:zoom="0.63861178"
     inkscape:cx="-263.89956"
     inkscape:cy="160.04227"
     inkscape:window-x="1592"
     inkscape:window-y="-8"
     inkscape:window-maximized="1"
     inkscape:current-layer="svg14"
     fit-margin-top="0"
     fit-margin-left="0"
     fit-margin-right="0"
     fit-margin-bottom="0" />
  <g
     id="g5100"
     clip-path="url(#clipPath5106)"
     transform="translate(-219.25464,-425.97903)">
    <path
       id="path4899"
       d="M 415.75384,7.0962728 C 299.56902,3.6697728 201.98782,92.008253 192.57666,206.51704 c -0.32283,3.93529 -2.59133,7.45181 -5.99798,9.44422 -2.40217,1.40352 -5.12569,2.11971 -7.90722,2.18152 C 90.010177,220.09134 9.6985535,290.27045 7.0740744,379.26075 4.0585485,481.51058 93.298622,562.6037 195.07121,549.30625 c 16.90705,-2.20917 33.25013,6.77917 41.11614,21.90761 21.35882,41.07959 35.15199,87.26894 40.28987,135.58178 l 13.95969,152.23331 c 1.461,13.74388 14.58699,23.05268 28.07293,20.0342 29.4551,-6.59124 81.85046,-12.98419 141.50461,4.02578 14.0519,4.00682 28.46567,-5.11009 30.86502,-19.52585 l 22.67767,-149.77554 c 8.90693,-53.5156 28.43138,-103.74957 56.8085,-146.64372 4.77811,-7.22191 13.63719,-10.64655 22.00776,-8.42008 103.92716,27.65269 206.26113,-48.88017 209.42102,-156.0253 C 804.29927,317.76451 731.24906,245.48979 647.61947,232.83772 634.96409,230.9218 627.1048,219.71141 626.21296,207.88481 617.93979,98.286253 528.05655,10.408273 415.75384,7.0962728 Z"
       style="fill:#dbdbdb;stroke:none;stroke-width:8;stroke-miterlimit:4;stroke-dasharray:none;stroke-opacity:1"
       inkscape:connector-curvature="0" />
    <path
       inkscape:connector-curvature="0"
       id="path13864"
       d="M 15.08528,334.92978 C 10.321887,348.96835 7.5304019,363.82975 7.0755142,379.254 4.1858692,477.23548 86.010195,555.77234 182.39778,550.46103 c 0.0829,-0.005 0.16521,-0.009 0.24805,-0.0137 1.27512,-0.0721 2.55632,-0.15335 3.83593,-0.25586 0.40367,-0.0312 0.80916,-0.0744 1.21289,-0.10742 0.99323,-0.0858 1.98697,-0.16801 2.98438,-0.27344 1.46084,-0.1511 2.92297,-0.31761 4.38867,-0.51172 16.7356,-2.18726 32.99731,6.35683 40.8125,21.31836 21.53429,41.22681 35.43433,87.62649 40.59766,136.17383 l 13.95898,152.23242 c 1.461,13.74387 14.58632,23.05363 28.07227,20.03515 29.45509,-6.59124 81.84992,-12.98463 141.50586,4.02539 14.0519,4.00683 28.46588,-5.11159 30.86523,-19.52734 l 22.67774,-149.77539 c 8.90694,-53.5156 28.43147,-103.74843 56.80859,-146.64258 0.46866,-0.71077 0.98968,-1.37286 1.53516,-2.00586 0.0856,-0.0982 0.1646,-0.20251 0.25195,-0.29882 0.53364,-0.59738 1.09865,-1.15396 1.68945,-1.67774 0.10526,-0.094 0.21527,-0.1852 0.32227,-0.27734 0.61411,-0.52129 1.25029,-1.00872 1.91601,-1.45117 0.0624,-0.0413 0.12531,-0.0779 0.18946,-0.11914 0.70207,-0.45577 1.42985,-0.87166 2.17773,-1.23438 l 0.0293,-0.0137 c 0.76056,-0.36594 1.54473,-0.6776 2.34375,-0.94531 0.0762,-0.0247 0.15232,-0.0532 0.22851,-0.0762 0.79326,-0.2553 1.59904,-0.4655 2.41992,-0.6211 0.0614,-0.0108 0.122,-0.0224 0.18165,-0.0332 1.72631,-0.31228 3.49855,-0.40912 5.28125,-0.25585 1.14781,0.0986 2.29967,0.28858 3.4414,0.59375 103.92718,27.6527 206.26198,-48.88026 209.42188,-156.02539 0.44843,-15.20508 -1.53748,-29.99987 -5.55664,-44.12305 -24.65591,74.92385 -100.61538,124.19111 -181.34571,112.72852 -0.14144,-0.0204 -0.26713,-0.0344 -0.41211,-0.0566 -19.07132,-2.80816 -31.13521,0.13201 -37.04882,2.38671 l -4.36914,2.06055 -12.14844,8.25586 c -97.58635,66.32177 -226.20322,64.64874 -322.03125,-4.1875 0,0 -15.81879,-9.60407 -27.92383,-16.09766 -3.01923,-1.51126 -10.85365,-4.75128 -22.23438,-4.89453 -2.75354,0.21007 -5.49485,0.34971 -8.2246,0.42383 -0.10467,0.0131 -0.20198,0.0162 -0.30665,0.0293 l -6.12695,0.0488 C 98.433561,458.45602 33.704704,406.22314 15.08528,334.92978 Z"
       style="fill:#b9b9b9;fill-opacity:1;stroke:none;stroke-width:8;stroke-miterlimit:4;stroke-dasharray:none;stroke-opacity:1" />
    <path
       id="path4899-1"
       d="M 415.75384,7.0962728 C 299.56902,3.6697728 201.98782,92.008253 192.57666,206.51704 c -0.32283,3.93529 -2.59133,7.45181 -5.99798,9.44422 -2.40217,1.40352 -5.12569,2.11971 -7.90722,2.18152 C 90.01018,220.09134 9.6985604,290.27045 7.0740804,379.26075 4.0585504,481.51058 93.29862,562.6037 195.07121,549.30625 c 16.90705,-2.20917 33.25013,6.77916 41.11614,21.90761 21.35882,41.07959 35.15199,87.26894 40.28987,135.58178 l 13.95969,152.23331 c 1.461,13.74388 14.58699,23.05268 28.07293,20.0342 29.4551,-6.59124 81.85046,-12.98419 141.50461,4.02578 14.0519,4.00682 28.46567,-5.11009 30.86502,-19.52585 l 22.67767,-149.77554 c 8.90693,-53.5156 28.43138,-103.74957 56.8085,-146.64372 4.77811,-7.22192 13.63719,-10.64654 22.00776,-8.42009 103.92716,27.6527 206.26113,-48.88016 209.42102,-156.02529 C 804.29927,317.76451 731.24906,245.48979 647.61947,232.83772 634.96409,230.9218 627.1048,219.71141 626.21296,207.88481 617.93979,98.286253 528.05655,10.408273 415.75384,7.0962728 Z"
       style="fill:none;stroke:#4d4d4d;stroke-width:14;stroke-miterlimit:4;stroke-dasharray:none;stroke-opacity:1"
       inkscape:connector-curvature="0" />
    <g
       transform="matrix(0.05298018,-1.796441,1.796441,0.05298018,-71.257316,913.31124)"
       id="g4911"
       style="fill:#ececec;fill-opacity:1;stroke:none;stroke-width:2.78207135;stroke-miterlimit:4;stroke-dasharray:none;stroke-opacity:1">
      <path
         id="path4907"
         d="m 185.068,227.08 c -0.299,-4.193 -3.938,-7.35 -8.134,-7.052 L 28.388,230.623 c 0.722,4.608 1.31,9.685 1.651,15.146 l 147.978,-10.556 c 4.193,-0.299 7.35,-3.941 7.051,-8.133 z"
         style="fill:#ececec;fill-opacity:1;stroke:none;stroke-width:2.78207135;stroke-miterlimit:4;stroke-dasharray:none;stroke-opacity:1"
         inkscape:connector-curvature="0" />
      <path
         id="path4909"
         d="m 177.483,295.749 c 3.957,0 7.298,-3.062 7.585,-7.071 0.3,-4.192 -2.858,-7.835 -7.051,-8.134 L 29.747,269.967 c -0.427,4.884 -1.094,9.932 -2.057,15.117 156.191,11.134 149.246,10.665 149.793,10.665 z"
         style="fill:#ececec;fill-opacity:1;stroke:none;stroke-width:2.78207135;stroke-miterlimit:4;stroke-dasharray:none;stroke-opacity:1"
         inkscape:connector-curvature="0" />
    </g>
    <g
       transform="matrix(0.05298018,-1.796441,1.796441,0.05298018,-71.257316,895.31124)"
       id="g4913"
       style="stroke:#4d4d4d;stroke-width:2.78207135;stroke-miterlimit:4;stroke-dasharray:none;stroke-opacity:1" />
    <g
       transform="matrix(0.05298018,-1.796441,1.796441,0.05298018,-71.257316,895.31124)"
       id="g4915"
       style="stroke:#4d4d4d;stroke-width:2.78207135;stroke-miterlimit:4;stroke-dasharray:none;stroke-opacity:1" />
    <g
       transform="matrix(0.05298018,-1.796441,1.796441,0.05298018,-71.257316,895.31124)"
       id="g4917"
       style="stroke:#4d4d4d;stroke-width:2.78207135;stroke-miterlimit:4;stroke-dasharray:none;stroke-opacity:1" />
    <g
       transform="matrix(0.05298018,-1.796441,1.796441,0.05298018,-71.257316,895.31124)"
       id="g4919"
       style="stroke:#4d4d4d;stroke-width:2.78207135;stroke-miterlimit:4;stroke-dasharray:none;stroke-opacity:1" />
    <g
       transform="matrix(0.05298018,-1.796441,1.796441,0.05298018,-71.257316,895.31124)"
       id="g4921"
       style="stroke:#4d4d4d;stroke-width:2.78207135;stroke-miterlimit:4;stroke-dasharray:none;stroke-opacity:1" />
    <g
       transform="matrix(0.05298018,-1.796441,1.796441,0.05298018,-71.257316,895.31124)"
       id="g4923"
       style="stroke:#4d4d4d;stroke-width:2.78207135;stroke-miterlimit:4;stroke-dasharray:none;stroke-opacity:1" />
    <g
       transform="matrix(0.05298018,-1.796441,1.796441,0.05298018,-71.257316,895.31124)"
       id="g4925"
       style="stroke:#4d4d4d;stroke-width:2.78207135;stroke-miterlimit:4;stroke-dasharray:none;stroke-opacity:1" />
    <g
       transform="matrix(0.05298018,-1.796441,1.796441,0.05298018,-71.257316,895.31124)"
       id="g4927"
       style="stroke:#4d4d4d;stroke-width:2.78207135;stroke-miterlimit:4;stroke-dasharray:none;stroke-opacity:1" />
    <g
       transform="matrix(0.05298018,-1.796441,1.796441,0.05298018,-71.257316,895.31124)"
       id="g4929"
       style="stroke:#4d4d4d;stroke-width:2.78207135;stroke-miterlimit:4;stroke-dasharray:none;stroke-opacity:1" />
    <g
       transform="matrix(0.05298018,-1.796441,1.796441,0.05298018,-71.257316,895.31124)"
       id="g4931"
       style="stroke:#4d4d4d;stroke-width:2.78207135;stroke-miterlimit:4;stroke-dasharray:none;stroke-opacity:1" />
    <g
       transform="matrix(0.05298018,-1.796441,1.796441,0.05298018,-71.257316,895.31124)"
       id="g4933"
       style="stroke:#4d4d4d;stroke-width:2.78207135;stroke-miterlimit:4;stroke-dasharray:none;stroke-opacity:1" />
    <g
       transform="matrix(0.05298018,-1.796441,1.796441,0.05298018,-71.257316,895.31124)"
       id="g4935"
       style="stroke:#4d4d4d;stroke-width:2.78207135;stroke-miterlimit:4;stroke-dasharray:none;stroke-opacity:1" />
    <g
       transform="matrix(0.05298018,-1.796441,1.796441,0.05298018,-71.257316,895.31124)"
       id="g4937"
       style="stroke:#4d4d4d;stroke-width:2.78207135;stroke-miterlimit:4;stroke-dasharray:none;stroke-opacity:1" />
    <g
       transform="matrix(0.05298018,-1.796441,1.796441,0.05298018,-71.257316,895.31124)"
       id="g4939"
       style="stroke:#4d4d4d;stroke-width:2.78207135;stroke-miterlimit:4;stroke-dasharray:none;stroke-opacity:1" />
    <g
       transform="matrix(0.05298018,-1.796441,1.796441,0.05298018,-71.257316,895.31124)"
       id="g4941"
       style="stroke:#4d4d4d;stroke-width:2.78207135;stroke-miterlimit:4;stroke-dasharray:none;stroke-opacity:1" />
    <g
       transform="matrix(0.56214,0,0,0.56214,244.39816,650.01988)"
       id="g4897">
      <path
         inkscape:connector-curvature="0"
         style="fill:#ed694a"
         d="m 373.499,163.809 c -10.67,-11.649 -27.258,-27.372 -34.315,8.13 -2.4,12.071 -8.007,21.376 -12.812,28.868 -5.179,-26.212 -20.761,-53.343 -35.443,-71.636 -5.494,-6.844 -24.988,-34.051 -28.733,-79.567 -0.559,-6.793 -8.628,-9.983 -13.675,-5.401 -48.232,43.784 -74.706,104.002 -75.689,171.795 0,0 -20.084,-16.929 -30.995,-48.423 -2.938,-8.481 -14.308,-10.099 -19.241,-2.6 -0.947,1.44 -1.825,2.882 -2.617,4.282 -37.213,65.8 -55.114,145.705 -38.565,220.045 27.67,124.497 210.704,159.303 307.603,81.054 94.805,-76.556 64.669,-219.045 -15.518,-306.547 z"
         id="path4791" />
      <g
         id="g4797">
        <path
           inkscape:connector-curvature="0"
           style="fill:#d8553a"
           d="M 107.171,397.118 C 90.814,321.983 108.128,241.3 144.467,174.47 c -0.919,-2.217 -1.803,-4.51 -2.629,-6.894 -2.938,-8.481 -14.308,-10.099 -19.241,-2.6 -0.947,1.44 -1.824,2.882 -2.616,4.282 -37.213,65.8 -55.114,145.705 -38.565,220.045 12.621,56.786 57.569,94.9 111.92,112.149 -42.4,-20.539 -75.604,-55.748 -86.165,-104.334 z"
           id="path4793" />
        <path
           inkscape:connector-curvature="0"
           style="fill:#d8553a"
           d="m 198.716,214.75 c 2.009,-61.527 24.263,-116.697 64.093,-159.079 -0.274,-2.334 -0.477,-4.421 -0.608,-6.005 -0.571,-6.851 -8.345,-10.287 -13.37,-5.745 -46.585,42.118 -74.979,101.727 -75.998,172.075 l 8.719,6.771 c 4.294,3.335 10.112,3.19 14.213,0.135 2.447,-2.074 2.798,-5.204 2.951,-8.152 z"
           id="path4795" />
      </g>
      <path
         inkscape:connector-curvature="0"
         style="fill:#f4a32c"
         d="m 344.242,254.818 c -7.88,-8.604 -20.133,-20.218 -25.345,6.005 -1.772,8.915 -5.915,15.789 -9.462,21.323 -3.825,-19.361 -15.335,-39.401 -26.179,-52.912 -4.058,-5.055 -18.456,-25.15 -21.223,-58.771 -0.413,-5.018 -6.372,-7.373 -10.1,-3.989 -35.625,32.339 -55.18,76.819 -55.905,126.891 0,0 -14.835,-12.504 -22.893,-35.766 -2.17,-6.264 -10.569,-7.459 -14.212,-1.92 -0.699,1.063 -1.348,2.129 -1.933,3.163 -27.487,48.601 -40.709,107.62 -28.486,162.53 20.438,91.956 155.63,117.665 227.202,59.868 70.024,-56.545 47.765,-161.79 -11.464,-226.422 z"
         id="path4799" />
      <path
         inkscape:connector-curvature="0"
         style="fill:#e89528"
         d="m 153.994,428.585 c -10.822,-53.676 0.387,-111.271 24.152,-159.231 -1.811,-3.546 -3.527,-7.466 -5.013,-11.754 -2.17,-6.264 -10.569,-7.46 -14.212,-1.921 -0.699,1.063 -1.348,2.129 -1.933,3.164 -27.486,48.601 -40.707,107.62 -28.486,162.529 9.506,42.768 43.837,71.196 85.041,83.567 -29.275,-14.681 -52.325,-40.475 -59.549,-76.354 z"
         id="path4801" />
      <path
         inkscape:connector-curvature="0"
         style="fill:#f4d44e"
         d="m 317.534,337.904 c -5.334,-5.824 -13.63,-13.687 -17.158,4.065 -1.199,6.036 -4.004,10.688 -6.406,14.434 -2.59,-13.107 -10.38,-26.672 -17.722,-35.818 -2.746,-3.422 -12.493,-17.025 -14.367,-39.784 -0.28,-3.397 -4.313,-4.992 -6.837,-2.7 -24.116,21.892 -37.353,52.002 -37.844,85.897 0,0 -10.043,-8.465 -15.497,-24.211 -1.469,-4.24 -7.154,-5.049 -9.62,-1.3 -0.474,0.719 -0.912,1.441 -1.309,2.141 -18.606,32.9 -27.557,72.852 -19.283,110.023 13.835,62.249 105.352,79.652 153.801,40.527 16.591,-13.398 26.878,-32.277 28.964,-53.16 3.149,-31.63 -9.024,-69.889 -36.722,-100.114 z"
         id="path4803" />
      <path
         inkscape:connector-curvature="0"
         style="fill:#eae9e8"
         d="m 292.749,415.006 c -2.972,-3.245 -7.593,-7.625 -9.559,2.264 -0.668,3.363 -2.23,5.955 -3.569,8.042 -1.443,-7.302 -5.783,-14.86 -9.873,-19.955 -1.53,-1.907 -6.961,-9.486 -8.005,-22.165 -0.156,-1.893 -2.404,-2.78 -3.809,-1.505 -13.435,12.197 -20.811,28.972 -21.084,47.856 0,0 -5.595,-4.716 -8.634,-13.489 -0.819,-2.363 -3.986,-2.814 -5.359,-0.724 -0.264,0.401 -0.508,0.803 -0.728,1.193 -10.366,18.33 -15.353,40.588 -10.743,61.297 10.498,47.231 96.546,45.799 101.824,-7.039 1.752,-17.621 -5.03,-38.937 -20.461,-55.775 z"
         id="path4805" />
      <path
         inkscape:connector-curvature="0"
         style="fill:#f7e7a1"
         d="m 231.364,487.194 c -4.61,-18.525 0.377,-38.436 10.743,-54.832 0.22,-0.349 0.465,-0.708 0.728,-1.067 1.374,-1.869 4.541,-1.466 5.359,0.647 3.039,7.848 8.634,12.067 8.634,12.067 0.225,-13.88 5.253,-26.48 14.488,-36.586 -2.065,-2.86 -8.383,-9.756 -9.574,-24.229 -0.156,-1.893 -2.404,-2.78 -3.809,-1.505 -13.435,12.197 -20.811,28.972 -21.084,47.856 0,0 -5.595,-4.716 -8.634,-13.488 -0.818,-2.363 -3.986,-2.814 -5.359,-0.724 -0.264,0.401 -0.508,0.803 -0.728,1.193 -10.366,18.329 -15.353,40.588 -10.743,61.297 4.266,19.195 21.792,30.731 41.168,33.515 -10.452,-5.133 -18.485,-13.261 -21.189,-24.144 z"
         id="path4807" />
      <g
         id="g4817">
        <path
           inkscape:connector-curvature="0"
           style="fill:#d8553a"
           d="m 184.598,68.045 c 21.625,-17.589 21.577,-50.496 0,-68.045 -21.625,17.588 -21.578,50.496 0,68.045 z"
           id="path4809" />
        <path
           inkscape:connector-curvature="0"
           style="fill:#d8553a"
           d="m 443.793,209.213 c 21.625,-17.589 21.577,-50.496 0,-68.045 -9.884,8.038 -21.577,50.496 0,68.045 z"
           id="path4811" />
        <path
           inkscape:connector-curvature="0"
           style="fill:#d8553a"
           d="m 60.785,222.606 c 15.585,-12.677 15.551,-36.392 0,-49.041 -7.123,5.793 -15.551,36.393 0,49.041 z"
           id="path4813" />
        <path
           inkscape:connector-curvature="0"
           style="fill:#d8553a"
           d="m 330.709,117.086 c 15.585,-12.677 15.551,-36.392 0,-49.041 -15.585,12.676 -15.55,36.393 0,49.041 z"
           id="path4815" />
      </g>
      <path
         inkscape:connector-curvature="0"
         style="fill:#e89528"
         d="m 215.911,285.324 c 3.579,-42.252 19.714,-79.821 46.806,-108.462 -0.274,-2.076 -0.505,-4.207 -0.685,-6.398 -0.413,-5.018 -6.372,-7.373 -10.1,-3.989 -28.23,25.626 -46.348,58.882 -53.022,96.497 l -0.01,-0.003 c -0.495,2.79 -1.109,6.854 -1.497,10.047 0.001,0.003 0.002,0.005 0.004,0.008 -0.811,6.664 -1.281,13.448 -1.381,20.343 0.754,0.147 17.822,8.92 19.885,-8.043 z"
         id="path4819" />
      <g
         id="g4825">
        <path
           inkscape:connector-curvature="0"
           style="fill:#e8c842"
           d="m 196.43,459.481 c -7.355,-34.725 -1.091,-71.755 13.461,-103.84 -2.819,-3.953 -5.904,-9.263 -8.187,-15.855 -1.47,-4.24 -7.154,-5.049 -9.621,-1.3 -0.473,0.719 -0.913,1.441 -1.309,2.141 -18.606,32.9 -27.557,72.852 -19.283,110.023 6.48,29.152 29.997,48.468 58.148,56.749 -16.386,-10.878 -28.781,-26.979 -33.209,-47.918 z"
           id="path4821" />
        <path
           inkscape:connector-curvature="0"
           style="fill:#e8c842"
           d="m 243.751,348.824 c 2.438,-17.425 9.565,-36.624 20.784,-52.675 -1.222,-4.532 -2.183,-9.653 -2.652,-15.348 -0.28,-3.397 -4.314,-4.992 -6.837,-2.7 -15.026,13.641 -25.811,30.479 -31.938,49.428 l -0.016,-0.004 c -0.964,2.977 -2.327,7.909 -3.153,11.802 0.007,-0.002 0.014,-0.002 0.021,-0.005 -1.692,7.944 -2.633,16.188 -2.756,24.675 13.492,1.684 24.653,-1.657 26.547,-15.173 z"
           id="path4823" />
      </g>
      <g
         id="g4827" />
      <g
         id="g4829" />
      <g
         id="g4831" />
      <g
         id="g4833" />
      <g
         id="g4835" />
      <g
         id="g4837" />
      <g
         id="g4839" />
      <g
         id="g4841" />
      <g
         id="g4843" />
      <g
         id="g4845" />
      <g
         id="g4847" />
      <g
         id="g4849" />
      <g
         id="g4851" />
      <g
         id="g4853" />
      <g
         id="g4855" />
    </g>
    <path
       inkscape:connector-curvature="0"
       id="path4830"
       d="m 343.78643,933.71469 h -17.022 l 2.919,-96.654 c 0.125,-4.109 -3.107,-7.542 -7.215,-7.666 -4.139,-0.149 -7.542,3.107 -7.665,7.216 l -2.934,97.104 h -16.847 v -96.679 c 0,-18.815 -11.85,-35.86 -29.487,-42.415 -0.1,-0.037 -0.202,-0.073 -0.303,-0.106 l -69.90803,-22.592 c -2.345,-0.757 -4.911,-0.306 -6.856,1.204 -1.944,1.511 -3.016,3.885 -2.863,6.343 1.745,27.921 -37.139,45.052 -37.522,45.218 -2.737,1.173 -4.512,3.865 -4.512,6.842 v 102.184 h -8.287 c -4.752,-13.849 -18.217,-55.096 -25.545,-98.023 -7.88101,-46.175 -10.313013,-103.804 22.859,-116.125 71.197,-26.445 153.82203,-23.124 154.64903,-23.086 2.866,0.125 5.59,-1.427 6.928,-3.989 l 23.422,-44.811 c 12.59,20.594 27.452,31.836 42.324,31.836 2.068,0 4.127,-0.201 6.173,-0.587 z"
       style="fill:#ececec;fill-opacity:1;stroke:none;stroke-opacity:1" />
    <path
       inkscape:connector-curvature="0"
       id="path4842"
       d="m 359.22943,628.25769 -18.706,-75.901 c 5.415,-0.887 11.819,-1.397 19.398,-1.397 7.583,0 13.99,0.493 19.407,1.354 l -18.714,75.934 z"
       style="fill:#f7ba61;fill-opacity:1;stroke:none;stroke-opacity:1" />
    <path
       inkscape:connector-curvature="0"
       id="path4828"
       d="m 387.58243,644.55469 c -3.262,-6.951 -9.376,-12.245 -17.134,-14.738 l 18.556,-75.291 c 19.901,6.231 19.908,18.981 19.908,24.708 0,19.531 -8.774,46.881 -21.33,65.321 z"
       style="fill:#ececec;fill-opacity:1;stroke:none;stroke-opacity:1" />
    <path
       inkscape:connector-curvature="0"
       id="path4844"
       d="m 310.92843,579.23369 c 0,-5.182 0.01,-18.204 19.933,-24.605 l 18.565,75.33 c -7.363,2.485 -13.208,7.513 -16.463,14.086 -2.039,-3.003 -4.034,-6.299 -5.959,-9.864 -9.616,-17.811 -16.076,-39.893 -16.076,-54.947 z"
       style="fill:#ececec;fill-opacity:1;stroke:none;stroke-opacity:1" />
    <path
       inkscape:connector-curvature="0"
       id="path4846"
       d="m 359.92043,664.62769 c -6.622,0 -14.063,-4.696 -21.266,-13.097 2.209,-9.128 10.563,-15.354 21.498,-15.354 11.156,0 19.641,6.47 21.641,15.898 -6.742,7.68 -14.237,12.553 -21.873,12.553 z"
       style="fill:#ececec;fill-opacity:1;stroke:none;stroke-opacity:1" />
    <path
       style="fill:#4d4d4d;fill-opacity:1"
       d="m 350.35443,643.18169 c -1.042,0 -2.065,0.427 -2.809,1.161 -0.735,0.744 -1.161,1.767 -1.161,2.819 0,1.042 0.427,2.065 1.161,2.799 0.744,0.744 1.767,1.171 2.809,1.171 1.042,0 2.074,-0.427 2.809,-1.171 0.744,-0.734 1.161,-1.757 1.161,-2.799 0,-1.052 -0.417,-2.075 -1.161,-2.819 -0.734,-0.734 -1.757,-1.161 -2.809,-1.161 z"
       id="path6"
       inkscape:connector-curvature="0" />
    <path
       style="fill:#4d4d4d;fill-opacity:1"
       d="m 370.28543,643.18169 c -1.042,0 -2.065,0.427 -2.799,1.171 -0.744,0.734 -1.171,1.757 -1.171,2.809 0,1.042 0.426,2.065 1.171,2.799 0.735,0.744 1.757,1.171 2.799,1.171 1.042,0 2.065,-0.427 2.809,-1.171 0.744,-0.734 1.171,-1.757 1.171,-2.799 0,-1.052 -0.426,-2.075 -1.171,-2.809 -0.735,-0.744 -1.757,-1.171 -2.809,-1.171 z"
       id="path8"
       inkscape:connector-curvature="0" />
    <path
       sodipodi:nodetypes="cscccc"
       inkscape:connector-curvature="0"
       d="m 365.31263,692.92869 c -2.046,0.386 -4.105,0.587 -6.173,0.587 -14.872,0 -36.3124,-13.19115 -48.9024,-33.78515 l 7.3779,-14.85031 52.6271,31.43008 z"
       style="fill:#b9b9b9;fill-opacity:1;fill-rule:evenodd;stroke:none;stroke-width:1px;stroke-linecap:butt;stroke-linejoin:miter;stroke-opacity:1"
       id="path4950" />
    <path
       inkscape:connector-curvature="0"
       id="path4832"
       d="m 158.4594,933.71469 v -97.509 c 3.806,-1.966 9.561,-5.252 15.603,-9.811 l -6.814,107.32 z"
       style="fill:#b9b9b9;fill-opacity:1;stroke:none;stroke-opacity:1" />
    <path
       inkscape:connector-curvature="0"
       id="path4953"
       d="m 123.51979,920.35533 v 15.59961 h 50.99609 v -15.59961 z"
       style="color:#000000;font-style:normal;font-variant:normal;font-weight:normal;font-stretch:normal;font-size:medium;line-height:normal;font-family:sans-serif;font-variant-ligatures:normal;font-variant-position:normal;font-variant-caps:normal;font-variant-numeric:normal;font-variant-alternates:normal;font-feature-settings:normal;text-indent:0;text-align:start;text-decoration:none;text-decoration-line:none;text-decoration-style:solid;text-decoration-color:#000000;letter-spacing:normal;word-spacing:normal;text-transform:none;writing-mode:lr-tb;direction:ltr;text-orientation:mixed;dominant-baseline:auto;baseline-shift:baseline;text-anchor:start;white-space:normal;shape-padding:0;clip-rule:nonzero;display:inline;overflow:visible;visibility:visible;opacity:1;isolation:auto;mix-blend-mode:normal;color-interpolation:sRGB;color-interpolation-filters:linearRGB;solid-color:#000000;solid-opacity:1;vector-effect:none;fill:#f7ba61;fill-opacity:1;fill-rule:evenodd;stroke:none;stroke-width:15.60000038;stroke-linecap:butt;stroke-linejoin:miter;stroke-miterlimit:4;stroke-dasharray:none;stroke-dashoffset:0;stroke-opacity:1;color-rendering:auto;image-rendering:auto;shape-rendering:auto;text-rendering:auto;enable-background:accumulate" />
    <path
       inkscape:connector-curvature="0"
       id="path4953-9"
       d="m 288.60683,920.35533 v 15.59961 h 65.1275 v -15.59961 z"
       style="color:#000000;font-style:normal;font-variant:normal;font-weight:normal;font-stretch:normal;font-size:medium;line-height:normal;font-family:sans-serif;font-variant-ligatures:normal;font-variant-position:normal;font-variant-caps:normal;font-variant-numeric:normal;font-variant-alternates:normal;font-feature-settings:normal;text-indent:0;text-align:start;text-decoration:none;text-decoration-line:none;text-decoration-style:solid;text-decoration-color:#000000;letter-spacing:normal;word-spacing:normal;text-transform:none;writing-mode:lr-tb;direction:ltr;text-orientation:mixed;dominant-baseline:auto;baseline-shift:baseline;text-anchor:start;white-space:normal;shape-padding:0;clip-rule:nonzero;display:inline;overflow:visible;visibility:visible;opacity:1;isolation:auto;mix-blend-mode:normal;color-interpolation:sRGB;color-interpolation-filters:linearRGB;solid-color:#000000;solid-opacity:1;vector-effect:none;fill:#f7ba61;fill-opacity:1;fill-rule:evenodd;stroke:none;stroke-width:17.62942696;stroke-linecap:butt;stroke-linejoin:miter;stroke-miterlimit:4;stroke-dasharray:none;stroke-dashoffset:0;stroke-opacity:1;color-rendering:auto;image-rendering:auto;shape-rendering:auto;text-rendering:auto;enable-background:accumulate" />
    <path
       sodipodi:nodetypes="cccsssscccscccccsscccsscccccsccsccccccccccscccccssccscscscccscccccsccccccscccccccccccccccccccccccccccccccsccccccscccccccscccccsccsccscc"
       style="fill:#4d4d4d;fill-opacity:1"
       d="m 189.9594,810.85969 c 4.736,-6.244 8.469,-13.52 9.927,-21.815 l 60.606,19.586 c 11.75603,4.436 19.64203,15.832 19.64203,28.405 v 104.123 c 0,4.111 3.332,7.444 7.444,7.444 h 63.029 c 3.86,0 7.079,-2.95 7.416,-6.795 l 23.61,-269.658 c 9.22,-6.411 17.813,-16.886 25.207,-30.973 10.304,-19.629 16.961,-43.942 16.961,-61.943 0,-3.062 -0.268,-6.215 -0.92,-9.358 l 7.093,-7.093 c 5.571,-5.572 8.268,-13.26 7.399,-21.093 l -2.831,-25.482 c -0.316,-2.844 -2.234,-5.255 -4.935,-6.202 -2.698,-0.947 -5.704,-0.263 -7.728,1.761 l -19.77,19.77 c -2.207,2.207 -4,4.829 -5.283,7.678 -33.3145,-5.88794 -39.9618,-5.76114 -68.678,0.685 -1.265,0.37 -2.493,0.766 -3.685,1.19 -1.281,-3.574 -3.354,-6.87 -6.038,-9.554 l -19.77,-19.77 c -2.024,-2.024 -5.029,-2.707 -7.728,-1.761 -2.7,0.947 -4.619,3.358 -4.935,6.202 l -2.832,25.483 c -0.87,7.833 1.827,15.522 7.4,21.093 l 6.566,6.567 c -0.717,3.118 -1.087,6.417 -1.087,9.884 0,1.575 0.076,3.221 0.186,4.897 l -36.23803,69.024 c -0.374,0.711 -0.569,1.503 -0.569,2.307 v 26.244 c -31.316,1.116 -83.544,5.904 -132.005,23.904 -3.982,1.479 -7.647,3.408 -11.004,5.769 -7.875,-9.265 -24.507003,-24.289 -47.845003,-21.402 -6.381,0.789 -28.427,5.081 -44.231,27.2 -14.5649999,20.388 -18.2769999,48.2 -11.033,82.665 2.54,12.083 6.021,29.856 6.929,44.647 1.229,20 -2.995,22.74 -3.038,22.763 -2.841,1.455 -4.438,4.56 -3.97,7.716 0.468,3.157 2.896,5.665 6.038,6.234 0.392,0.071 4.204,0.733 9.693,0.733 8.764,0 21.801,-1.688 31.998,-10.163 9.674,-8.04 14.618,-20.135 14.695,-35.952 0.29,-59.386 1.96,-72.692 15.894,-76.506 -3.058,20.792 -1.868,47.38 3.552,79.057 9.200003,53.776 27.160003,103.262 27.920003,105.342 1.073,2.936 3.866,4.89 6.992,4.89 h 44.229 c 3.929,0 7.18,-3.052 7.43,-6.973 z m 169.96103,-146.232 c -6.622,0 -14.063,-4.696 -21.266,-13.097 2.209,-9.128 10.563,-15.354 21.498,-15.354 11.156,0 19.641,6.47 21.641,15.898 -6.742,7.68 -14.237,12.553 -21.873,12.553 z m -10.494,-34.669 c -7.363,2.485 -13.208,7.513 -16.463,14.086 -2.039,-3.003 -4.034,-6.299 -5.959,-9.864 -9.616,-17.811 -16.076,-39.893 -16.076,-54.947 0,-5.182 0.01,-18.204 19.933,-24.605 m 0,0 18.565,75.33 m 9.803,-1.701 -18.706,-75.901 c 5.415,-0.887 11.819,-1.397 19.398,-1.397 7.583,0 13.99,0.493 19.407,1.354 l -18.714,75.934 z m -48.382,-80.015 c -2.673,2.02 -5.003,4.292 -6.968,6.803 l -2.791,-2.791 c -2.357,-2.356 -3.498,-5.608 -3.13,-8.92 l 1.121,-10.089 8.818,8.818 c 1.094,1.093 2.404,4.731 2.95,6.179 z m -41.503,108.443 29.371,-55.946 c 2.257,10.087 5.862,20.79 10.455,30.921 l -26.032,49.805 c -3.205,-0.063 -7.901,-0.103 -13.794,-0.014 z m -204.066033,111.094 c -4.059,13.615 -4.352,33.677 -4.52,67.967 -0.054,11.178 -3.172,19.431 -9.268,24.529 -5.25,4.39 -12.05,6.048 -17.806,6.568 3.431,-13.221 1.445,-35.532 -5.813,-70.065 -6.352,-30.219 -3.466,-54.09 8.577,-70.948 9.755,-13.654 23.93,-19.842 33.942,-21.079 16.937,-2.094 29.650003,10.228 35.280003,17.03 -4.536,5.95 -8.107003,13.22 -10.695003,21.79 -16.355,2.169 -25.311,9.499 -29.697,24.208 z m 93.181003,165.935 v -97.509 c 3.806,-1.966 9.561,-5.252 15.603,-9.811 l -6.814,107.32 z m 185.32703,0 h -17.022 l 2.919,-96.654 c 0.125,-4.109 -3.107,-7.542 -7.215,-7.666 -4.139,-0.149 -7.542,3.107 -7.665,7.216 l -2.934,97.104 h -16.847 v -96.679 c 0,-18.815 -11.85,-35.86 -29.487,-42.415 -0.1,-0.037 -0.202,-0.073 -0.303,-0.106 l -69.90803,-22.592 c -2.345,-0.757 -4.911,-0.306 -6.856,1.204 -1.944,1.511 -3.016,3.885 -2.863,6.343 1.745,27.921 -37.139,45.052 -37.522,45.218 -2.737,1.173 -4.512,3.865 -4.512,6.842 v 102.184 h -8.287 c -4.752,-13.849 -18.217,-55.096 -25.545,-98.023 -7.881,-46.175 -10.313003,-103.804 22.859,-116.125 71.197,-26.445 153.82203,-23.124 154.64903,-23.086 2.866,0.125 5.59,-1.427 6.928,-3.989 l 23.422,-44.811 c 12.59,20.594 27.452,31.836 42.324,31.836 2.068,0 4.127,-0.201 6.173,-0.587 z m 43.796,-289.16 c -3.262,-6.951 -9.376,-12.245 -17.134,-14.738 l 18.556,-75.291 c 19.901,6.231 19.908,18.981 19.908,24.708 0,19.531 -8.774,46.881 -21.33,65.321 z m 22.039,-95.973 c 0.546,-1.449 1.922,-5.425 3.016,-6.519 l 8.818,-8.818 1.121,10.088 c 0.368,3.314 -0.773,6.565 -3.13,8.922 l -3.079,3.079 c -1.824,-2.394 -4.051,-4.665 -6.746,-6.752 z"
       id="path2"
       inkscape:connector-curvature="0" />
    <path
       inkscape:connector-curvature="0"
       id="path4838"
       d="m 310.84743,548.24269 c -2.673,2.02 -5.003,4.292 -6.968,6.803 l -2.791,-2.791 c -2.357,-2.356 -3.498,-5.608 -3.13,-8.92 l 1.121,-10.089 8.818,8.818 c 1.094,1.093 2.404,4.731 2.95,6.179 z"
       style="fill:#b9b9b9;fill-opacity:1" />
    <path
       inkscape:connector-curvature="0"
       id="path4836"
       d="m 269.34443,656.68569 29.371,-55.946 c 2.257,10.087 5.862,20.79 10.455,30.921 l -26.032,49.805 c -3.205,-0.063 -7.901,-0.103 -13.794,-0.014 z"
       style="fill:#f7ba61;fill-opacity:1;stroke:none;stroke-opacity:1" />
    <path
       inkscape:connector-curvature="0"
       id="path4834"
       d="m 65.278397,767.77969 c -4.059,13.615 -4.352,33.677 -4.52,67.967 -0.054,11.178 -3.172,19.431 -9.268,24.529 -5.25,4.39 -12.05,6.048 -17.806,6.568 3.431,-13.221 1.445,-35.532 -5.813,-70.065 -6.352,-30.219 -3.466,-54.09 8.577,-70.948 9.755,-13.654 23.93,-19.842 33.942,-21.079 16.937,-2.094 29.650003,10.228 35.280003,17.03 -4.536,5.95 -8.107003,13.22 -10.695003,21.79 -16.355,2.169 -25.311,9.499 -29.697,24.208 z"
       style="fill:#f7ba61;fill-opacity:1;stroke:none;stroke-opacity:1" />
    <path
       inkscape:connector-curvature="0"
       id="path2-7"
       d="m 409.62143,548.58169 c 0.546,-1.449 1.922,-5.425 3.016,-6.519 l 8.818,-8.818 1.121,10.088 c 0.368,3.314 -0.773,6.565 -3.13,8.922 l -3.079,3.079 c -1.824,-2.394 -4.051,-4.665 -6.746,-6.752 z"
       style="fill:#b9b9b9;fill-opacity:1" />
    <path
       id="path12-0"
       d="m 375.94533,536.12219 -15.1351,-68.11263 -15.1374,68.11263"
       style="fill:#18bc9c;fill-opacity:1;stroke-width:0.55430692"
       inkscape:connector-curvature="0" />
    <path
       inkscape:connector-curvature="0"
       id="path4829"
       d="m 353.68313,507.37221 2.43811,-11.77564 13.70229,7.33558 -0.83044,16.05521 -15.30996,-11.61515"
       style="fill:#f7ba61;fill-opacity:1;fill-rule:evenodd;stroke:none;stroke-width:1px;stroke-linecap:butt;stroke-linejoin:miter;stroke-opacity:1" />
    <path
       id="path14-1"
       d="m 381.42593,538.06274 -16.451,-74.03642 c -0.4189,-1.87809 -2.0899,-3.21959 -4.015,-3.21959 -1.9252,0 -3.5985,1.3415 -4.0151,3.21959 l -16.4533,74.03642 c -0.4919,2.21699 0.9037,4.41281 3.1231,4.90704 2.217,0.49189 4.4151,-0.90609 4.907,-3.12309 l 12.4383,-55.96624 12.4359,55.96624 c 0.4918,2.217 2.69,3.61498 4.907,3.12309 2.2194,-0.49188 3.6173,-2.69005 3.1231,-4.90704 z m 0,0"
       style="fill:#4d4d4d;fill-opacity:1;stroke-width:0.60249609"
       inkscape:connector-curvature="0" />
    <path
       sodipodi:nodetypes="zsczzccszz"
       inkscape:connector-curvature="0"
       d="m 389.00443,554.52569 c 20.1836,5.3083 19.908,18.981 19.908,24.708 0,19.531 -8.774,46.88099 -21.33,65.32099 -3.262,-6.951 -9.6003,-13.24786 -17.134,-14.738 -7.5337,-1.49014 -13.9295,-1.34414 -21.022,0.142 -7.0925,1.48614 -13.208,7.513 -16.463,14.086 -2.039,-3.003 -4.034,-6.299 -5.959,-9.864 -9.616,-17.811 -16.076,-39.89299 -16.076,-54.94699 0,-5.182 -0.7488,-19.69899 19.933,-24.605 20.6818,-4.90601 37.9594,-5.4113 58.143,-0.103 z"
       style="fill:#ececec;fill-opacity:1;stroke:none;stroke-opacity:1"
       id="path4827-5" />
    <path
       sodipodi:nodetypes="ccscscc"
       inkscape:connector-curvature="0"
       id="path4827-5-4-9"
       d="m 361.52138,550.62571 c 0,0 0.32143,19.54404 1.63373,78.2826 -4.11293,0.0989 -10.87988,0.61734 -12.0108,0.98345 -10.02823,3.24642 -16.68051,10.43159 -18.18088,14.15293 -12.556,-18.44 -23.9442,-49.89377 -21.79109,-69.6205 0.62139,-5.69319 1.28066,-15.10235 21.46426,-20.41066 12.78441,-2.74022 28.88478,-3.38782 28.88478,-3.38782 z"
       style="fill:#b9b9b9;fill-opacity:1;stroke:none;stroke-opacity:1" />
    <g
       style="fill:#f7ba61;fill-opacity:1"
       transform="matrix(0.34984762,0,0,0.34984762,575.56183,412.01036)"
       id="g4799">
      <path
         inkscape:connector-curvature="0"
         style="fill:#f7ba61;fill-opacity:1;stroke-width:1.33056629"
         d="m -613.98051,328.31088 c 35.11448,0 63.58132,20.33272 63.58132,45.41597 v 81.75187 l -81.75185,-27.25063"
         id="path18-8" />
      <path
         inkscape:connector-curvature="0"
         style="fill:#f7ba61;fill-opacity:1;stroke-width:1.33056629"
         d="m -613.98051,379.83914 v -51.52826 c -35.11967,0 -63.58651,20.33792 -63.58651,45.41597 v 127.16783 l 72.66659,-90.83193"
         id="path22" />
    </g>
    <g
       id="g30"
       style="fill:#4d4d4d;fill-opacity:1"
       transform="matrix(0.4918497,0,0,0.4918497,258.6251,473.15185)">
      <g
         style="fill:#4d4d4d;fill-opacity:1"
         id="g4795">
        <path
           inkscape:connector-curvature="0"
           style="fill:#4d4d4d;fill-opacity:1;stroke-width:1.33056629"
           d="m -613.98051,337.39616 c 15.80048,-0.0208 29.95854,4.63618 39.67791,11.61127 4.87008,3.47195 8.6175,7.48443 11.09151,11.66844 2.47403,4.1996 3.72144,8.51355 3.72664,13.05618 v 69.14266 l -69.79237,-23.26411 c -4.76092,-1.58525 -9.90129,0.98753 -11.49173,5.74846 -1.58523,4.75574 0.98754,9.90129 5.74846,11.48653 l 81.74667,27.25062 c 2.76509,0.92517 5.82123,0.45738 8.18611,-1.24741 2.36487,-1.70479 3.7734,-4.45427 3.7734,-7.37008 v -81.74667 c 0.005,-8.00418 -2.3025,-15.63936 -6.26821,-22.31297 -5.96157,-10.02603 -15.44705,-17.99384 -26.90239,-23.53439 -11.47614,-5.53017 -25.01569,-8.65389 -39.49599,-8.65389 -5.01562,0 -9.08528,4.06447 -9.08528,9.08008 0,5.01561 4.06966,9.08528 9.08527,9.08528 z m 0,0"
           id="path20"
           transform="matrix(0.75155969,0,0,0.75155969,669.98988,-137.51866)" />
        <path
           style="fill:#4d4d4d;fill-opacity:1"
           inkscape:connector-curvature="0"
           d="m 215.37109,147.95312 v -38.72656 c 0,-1.79687 -0.72656,-3.55468 -2,-4.82812 -1.26953,-1.26953 -3.02734,-2 -4.82422,-2 -14.51562,0.0156 -27.76953,4.15625 -37.75781,11.26953 -4.99219,3.56641 -9.17187,7.90234 -12.14844,12.92578 -2.97656,5.01562 -4.71484,10.75391 -4.70703,16.76562 v 95.57422 c 0,2.90625 1.82422,5.47657 4.56641,6.44141 2.74219,0.96094 5.77344,0.0898 7.58984,-2.17969 l 54.61328,-68.26562 c 2.35547,-2.94532 1.87891,-7.23828 -1.0664,-9.59375 -2.94531,-2.35547 -7.23828,-1.87891 -9.59375,1.0664 l -42.45703,53.06641 v -76.10938 c 0.008,-3.41406 0.9414,-6.65234 2.80078,-9.80859 2.77734,-4.71094 7.76172,-9.14844 14.40625,-12.34765 6.6289,-3.20313 14.84375,-5.15625 23.7539,-5.15235 v -6.82422 h -6.82812 v 38.72266 c 0,3.77344 3.05859,6.82812 6.82812,6.82812 3.76954,0.004 6.82422,-3.05468 6.82422,-6.82422 z m 0,0"
           id="path24-3" />
      </g>
    </g>
    <path
       style="fill:#e8465a;fill-opacity:1"
       d="m 333.22343,605.81269 c 0.932,-0.913 1.459,-2.193 1.459,-3.503 0,-1.31 -0.526,-2.591 -1.459,-3.514 -0.924,-0.923 -2.204,-1.449 -3.504,-1.449 -1.31,0 -2.591,0.526 -3.514,1.449 -0.923,0.923 -1.449,2.203 -1.449,3.514 0,1.31 0.526,2.59 1.449,3.503 0.923,0.933 2.203,1.459 3.514,1.459 1.3,0 2.581,-0.526 3.504,-1.459 z"
       id="path4"
       inkscape:connector-curvature="0" />
    <path
       style="fill:#e8465a;fill-opacity:1"
       d="m 389.52043,597.34569 c -1.31,0 -2.591,0.526 -3.514,1.449 -0.923,0.923 -1.459,2.203 -1.459,3.514 0,1.31 0.536,2.58 1.459,3.503 0.923,0.933 2.203,1.459 3.514,1.459 1.3,0 2.58,-0.526 3.504,-1.459 0.923,-0.923 1.459,-2.203 1.459,-3.503 0,-1.31 -0.536,-2.581 -1.459,-3.514 -0.923,-0.923 -2.204,-1.449 -3.504,-1.449 z"
       id="path10"
       inkscape:connector-curvature="0" />
    <path
       inkscape:connector-curvature="0"
       id="path4873"
       d="m 356.10153,494.12179 11.3706,8.61412"
       style="fill:#4d4d4d;fill-opacity:1;fill-rule:evenodd;stroke:#4d4d4d;stroke-width:3;stroke-linecap:butt;stroke-linejoin:miter;stroke-miterlimit:4;stroke-dasharray:none;stroke-opacity:1" />
    <path
       inkscape:connector-curvature="0"
       id="path4873-2"
       d="m 353.68313,507.37221 17.7787,13.46867"
       style="fill:#4d4d4d;fill-opacity:1;fill-rule:evenodd;stroke:#4d4d4d;stroke-width:3;stroke-linecap:butt;stroke-linejoin:miter;stroke-miterlimit:4;stroke-dasharray:none;stroke-opacity:1" />
  </g>
</svg>
